<?xml version="1.0" standalone="no"?>
<!DOCTYPE svg PUBLIC "-//W3C//DTD SVG 20010904//EN"
 "http://www.w3.org/TR/2001/REC-SVG-20010904/DTD/svg10.dtd">
<svg version="1.0" xmlns="http://www.w3.org/2000/svg"
 width="600.000000pt" height="600.000000pt" viewBox="0 0 600.000000 600.000000"
 preserveAspectRatio="xMidYMid meet">
<metadata>
Created by potrace 1.11, written by Peter Selinger 2001-2013
</metadata>
<g transform="translate(0.000000,600.000000) scale(0.100000,-0.100000)"
fill="#000000" stroke="none">
<path d="M0 3000 l0 -3000 3000 0 3000 0 0 3000 0 3000 -3000 0 -3000 0 0
-3000z m3340 1835 c221 -35 459 -98 586 -155 229 -103 385 -196 484 -287 l52
-48 -21 -48 c-77 -180 -225 -326 -397 -394 -64 -25 -80 -28 -214 -28 l-145 0
-132 47 c-165 58 -219 95 -418 288 -371 358 -595 478 -875 467 -102 -4 -113
-7 -265 -62 -45 -16 33 37 118 80 145 73 356 132 567 159 88 11 559 -2 660
-19z m-889 -199 c170 -36 300 -119 550 -351 89 -82 192 -174 230 -205 l68 -55
-152 -7 c-279 -13 -477 -50 -642 -120 -78 -33 -196 -106 -211 -130 -4 -6 8 0
27 15 50 38 182 102 270 130 131 43 347 78 469 76 l45 -1 -65 -17 c-84 -22
-162 -65 -207 -114 -87 -97 -128 -268 -84 -354 57 -112 262 -187 582 -213 390
-31 492 -47 668 -106 324 -108 532 -299 596 -549 23 -87 37 -362 25 -485 -41
-432 -267 -754 -639 -916 -167 -72 -387 -111 -571 -100 -135 9 -234 17 -240
21 -3 2 -82 4 -175 5 -270 4 -517 44 -1010 165 -319 78 -401 94 -499 96 -73 2
-77 3 -84 28 -4 14 -7 107 -7 206 0 163 2 186 23 245 92 256 315 378 695 380
188 1 293 -22 627 -139 285 -100 424 -126 526 -96 113 32 164 88 164 178 0 79
-65 152 -185 207 -73 33 -114 43 -302 75 -365 62 -636 155 -788 271 -33 25
-84 56 -113 69 -85 39 -221 133 -295 204 -143 137 -233 304 -266 495 -53 299
109 725 353 927 103 85 244 154 356 172 58 10 200 6 261 -7z"/>
<path d="M2244 3728 l-29 -33 33 29 c30 28 37 36 29 36 -2 0 -16 -15 -33 -32z"/>
</g>
</svg>
